<svg id="_ÎÓÈ_1" data-name="—ÎÓÈ_1" xmlns="http://www.w3.org/2000/svg" viewBox="0 0 411.54 411.84"><defs><style>.cls-1{opacity:0.8;}.cls-2{fill:#fff;}</style></defs><title>circle</title><g class="cls-1"><rect class="cls-2" x="196.44" width="14.85" height="27.53"/><polygon class="cls-2" points="174.09 30.28 159.56 33.36 153.83 6.44 168.37 3.35 174.09 30.28"/><rect class="cls-2" x="2230.16" y="1603.33" width="14.86" height="27.52" transform="translate(-2575.95 -536.2) rotate(-24)"/><polygon class="cls-2" points="105.38 58.35 93.36 67.07 77.19 44.81 89.2 36.08 105.38 58.35"/><rect class="cls-2" x="2165.98" y="1650.93" width="14.85" height="27.53" transform="translate(-2629.6 580.54) rotate(-48.01)"/><rect class="cls-2" x="2142.69" y="1683.66" width="14.85" height="27.53" transform="translate(-2506.75 1124.62) rotate(-60)"/><polygon class="cls-2" points="37.81 145.53 33.22 159.66 7.04 151.15 11.63 137.03 37.81 145.53"/><rect class="cls-2" x="2118.74" y="1759.9" width="14.85" height="27.53" transform="translate(-1971.47 2117.1) rotate(-84.01)"/><rect class="cls-2" x="2112.8" y="1806.41" width="27.53" height="14.85" transform="translate(-2290.02 -1353.18) rotate(-6.01)"/><rect class="cls-2" x="2121.54" y="1845.62" width="27.53" height="14.85" transform="translate(-2579.43 -836.32) rotate(-17.98)"/><polygon class="cls-2" points="48.51 290.32 55.94 303.19 32.09 316.95 24.67 304.09 48.51 290.32"/><polygon class="cls-2" points="69.5 321.18 79.43 332.23 58.97 350.64 49.03 339.6 69.5 321.18"/><rect class="cls-2" x="2192.3" y="1941.01" width="27.53" height="14.85" transform="translate(-2778.65 1002) rotate(-54)"/><rect class="cls-2" x="2227.28" y="1960.75" width="27.53" height="14.86" transform="translate(-2579.66 1630.16) rotate(-66.02)"/><polygon class="cls-2" points="163.26 379.26 177.8 382.36 172.07 409.28 157.54 406.19 163.26 379.26"/><rect class="cls-2" x="200.24" y="384.32" width="14.85" height="27.52"/><polygon class="cls-2" points="237.44 381.57 251.97 378.47 257.69 405.4 243.17 408.5 237.44 381.57"/><polygon class="cls-2" points="273.27 371.14 286.85 365.1 298.03 390.25 284.47 396.3 273.27 371.14"/><polygon class="cls-2" points="306.15 353.5 318.16 344.77 334.34 367.04 322.33 375.77 306.15 353.5"/><rect class="cls-2" x="2454.11" y="1905.27" width="14.86" height="27.53" transform="translate(-2723.23 879.12) rotate(-48.02)"/><rect class="cls-2" x="2477.41" y="1872.54" width="14.86" height="27.53" transform="translate(-2502.59 1509.82) rotate(-60.01)"/><rect class="cls-2" x="2493.39" y="1835.68" width="14.86" height="27.52" transform="translate(-2142.7 2070.28) rotate(-72)"/><rect class="cls-2" x="2501.35" y="1796.3" width="14.86" height="27.53" transform="translate(-1665.94 2529.4) rotate(-83.98)"/><polygon class="cls-2" points="383.76 192.78 382.21 178 409.58 175.13 411.14 189.9 383.76 192.78"/><polygon class="cls-2" points="377.15 156.06 372.54 141.93 398.73 133.43 403.32 147.56 377.15 156.06"/><rect class="cls-2" x="2469.18" y="1686.72" width="27.53" height="14.85" transform="translate(-2626.09 -117.95) rotate(-29.99)"/><rect class="cls-2" x="2445.25" y="1654.45" width="27.52" height="14.85" transform="translate(-2591.83 488.32) rotate(-42.04)"/><rect class="cls-2" x="2415.13" y="1627.86" width="27.52" height="14.86" transform="translate(-2433.72 1052.46) rotate(-53.99)"/><polygon class="cls-2" points="283.38 45.2 269.81 39.16 281.01 14.02 294.58 20.05 283.38 45.2"/><polygon class="cls-2" points="248.27 32.58 233.74 29.49 239.47 2.57 253.99 5.65 248.27 32.58"/></g></svg>